HIERARCHY
ROOT pelvis
{
	OFFSET 0.000000 0.000000 0.000000
	CHANNELS 6 Xposition Yposition Zposition Zrotation Xrotation Yrotation
	JOINT lfemur
	{
		OFFSET 11.446000 0.000000 0.000000
		CHANNELS 3 Zrotation Xrotation Yrotation
		JOINT ltibia
		{
			OFFSET 0.000000 -42.030400 0.000000
			CHANNELS 3 Zrotation Xrotation Yrotation
			JOINT lfoot
			{
				OFFSET 0.000000 -39.930200 0.000000
				CHANNELS 3 Zrotation Xrotation Yrotation
				JOINT ltoes
				{
					OFFSET 0.000000 0.000000 11.775800
					CHANNELS 3 Zrotation Xrotation Yrotation
					End Site
					{
					    OFFSET 0.000000 0.000000 5.000000
					}
				}
			}
		}
	}
	JOINT rfemur
	{
		OFFSET -11.446000 0.000000 0.000000
		CHANNELS 3 Zrotation Xrotation Yrotation
		JOINT rtibia
		{
			OFFSET 0.000000 -42.030400 0.000000
			CHANNELS 3 Zrotation Xrotation Yrotation
			JOINT rfoot
			{
				OFFSET 0.000000 -39.930200 0.000000
				CHANNELS 3 Zrotation Xrotation Yrotation
				JOINT rtoes
				{
					OFFSET 0.000000 0.000000 11.775800
					CHANNELS 3 Zrotation Xrotation Yrotation
					End Site
					{
					    OFFSET 0.000000 0.000000 5.000000
					}
				}
			}
		}
	}
	JOINT thorax
	{
		OFFSET 0.000000 11.255600 -5.000000
		CHANNELS 3 Zrotation Xrotation Yrotation
		JOINT head
		{
			OFFSET 0.000000 43.799300 0.000000
			CHANNELS 3 Zrotation Xrotation Yrotation
			End Site
			{
			    OFFSET 0.000000 5.000000 0.000000
			}
		}
		JOINT lclavicle
		{
			OFFSET 0.000000 39.863000 0.000000
			CHANNELS 3 Zrotation Xrotation Yrotation
			JOINT lhumerus
			{
				OFFSET 17.380600 4.958300 0.000000
				CHANNELS 3 Zrotation Xrotation Yrotation
				JOINT lradius
				{
					OFFSET 0.000000 -27.561300 0.000000
					CHANNELS 3 Zrotation Xrotation Yrotation
					JOINT lhand
					{
						OFFSET 0.000000 -26.933000 0.000000
						CHANNELS 3 Zrotation Xrotation Yrotation
						End Site
						{
						    OFFSET 0.000000 -5.000000 0.000000
						}
					}
				}
			}
		}
		JOINT rclavicle
		{
			OFFSET 0.000000 39.863000 0.000000
			CHANNELS 3 Zrotation Xrotation Yrotation
			JOINT rhumerus
			{
				OFFSET -17.380600 4.958300 0.000000
				CHANNELS 3 Zrotation Xrotation Yrotation
				JOINT rradius
				{
					OFFSET 0.000000 -27.561300 0.000000
					CHANNELS 3 Zrotation Xrotation Yrotation
					JOINT rhand
					{
						OFFSET 0.000000 -26.933000 0.000000
						CHANNELS 3 Zrotation Xrotation Yrotation
						End Site
						{
						    OFFSET 0.000000 -5.000000 0.000000
						}
					}
				}
			}
		}
	}
}
MOTION
Frames:	6
Frame Time:	0.0333333
32.819000 81.108800 8.748000 13.576273 -9.193072 -98.015917 -14.408121 -40.067349 -3.962081 -0.000000 47.216541 -0.000000 -0.000000 -2.943263 4.901104 -0.000000 -1.357617 -0.000000 -2.237285 -32.951723 2.820340 -0.000000 82.406352 -0.000000 -0.000000 -5.496285 -7.627484 -0.000000 -29.505955 0.000000 -15.429945 17.673777 2.676291 9.061189 10.138611 14.485960 -22.464754 -0.000000 5.379654 38.729872 12.614066 14.115642 -0.000003 -51.384155 -30.135448 15.186827 -10.170901 -0.000000 23.424728 -0.000000 2.220639 -30.684000 18.415607 3.484371 -0.000001 -81.347619 7.119190 -7.503187 -0.930226 0.000000 
26.440200 80.673900 8.517500 12.917429 -8.790291 -93.546843 -15.351683 -35.006116 -3.964205 -0.000000 48.494104 -0.000000 0.000000 -6.873893 1.234046 -0.000000 -1.334590 -0.000000 -2.557121 -39.245800 1.819690 -0.000000 82.025289 -0.000000 0.000000 -6.443266 -9.003468 0.000000 -29.498664 -0.000000 -14.247240 19.066333 0.922585 9.770413 10.144368 11.043055 -20.184484 0.000000 2.223947 31.814470 1.955410 7.441019 0.000003 -62.156086 -33.392444 14.299502 -10.269067 -0.000000 24.885106 0.000000 2.440716 -31.215772 21.217260 -3.811518 -0.000002 -54.245401 12.715805 -11.297347 0.351207 -0.000000 
19.822000 81.960100 8.144900 13.014635 -6.945380 -89.387099 -13.742352 -27.683574 -4.557847 -0.000000 43.925092 0.000000 -0.000000 -7.507098 -2.175608 -0.000000 -1.351775 -0.000000 -2.516904 -44.355897 -0.780247 -0.000000 74.864824 -0.000000 -0.000000 -5.828932 -10.157611 -0.000000 -29.493559 -0.000000 -10.951591 18.363746 -1.797918 9.333368 13.347541 8.646223 -17.193704 0.000000 1.999467 26.296288 -6.673407 -9.335839 0.000004 -75.898884 -35.415119 11.587650 -10.967517 -0.000000 26.268012 -0.000000 2.041120 -33.748162 25.297696 -5.736744 0.000000 -34.450608 20.112917 -9.125920 -0.378964 0.000000 
12.877600 84.492900 7.861100 13.371750 -5.613674 -85.029277 -12.568712 -19.723930 -6.881599 -0.000000 36.693563 0.000000 -0.000000 -1.984024 -3.510926 -0.000000 -1.446765 -0.000000 -4.923273 -46.466441 -5.386758 -0.000000 61.772162 -0.000000 -0.000000 -3.739718 -8.584310 0.000000 -29.499289 0.000000 -7.762287 17.298571 -4.943940 8.665688 16.754182 6.818062 -14.820461 -0.000000 2.253464 23.254880 -13.385956 -25.911953 179.998915 -89.761758 143.411254 10.652009 -11.177885 0.000000 27.720380 0.000000 0.638638 -35.725862 32.176035 -7.954624 0.000000 -29.171197 22.505369 -9.455616 -0.268698 -0.000000 
5.460500 87.155100 7.333400 13.297504 -4.295288 -81.666923 -10.504684 -12.939181 -7.991460 -0.000000 31.596004 -0.000000 -0.000000 5.119564 -3.476384 -0.000000 -1.551479 -0.000000 -5.964523 -44.828142 -7.573927 -0.000000 43.655211 0.000000 0.000000 3.039323 -8.234639 -0.000000 -29.510426 -0.000000 -5.462869 16.481996 -8.098513 8.535366 19.856962 7.202167 -12.294434 -0.000000 3.423473 20.710750 -15.917332 -36.518169 180.000022 -74.929207 143.126111 9.709742 -11.110246 -0.000000 27.820832 0.000000 -1.190015 -35.602075 36.899734 -11.511547 -0.000000 -28.892594 21.644184 -9.099774 -0.386445 -0.000000 
-2.245200 88.711300 6.884900 12.683232 -4.560130 -79.787597 -9.713126 -8.129217 -5.815124 -0.000000 33.896422 -0.000000 -0.000000 6.044439 -1.218392 -0.000000 -1.581678 -0.000000 -7.264664 -41.083420 -6.868526 0.000000 24.672098 0.000000 0.000000 15.521047 -6.613518 0.000000 -29.522901 -0.000000 -5.310400 16.197417 -10.613521 8.546723 22.101229 8.827876 -11.899508 -0.000000 4.173494 22.377597 -14.667752 -41.788830 -180.000031 -61.483875 146.397323 10.097843 -12.230503 0.000000 27.730495 -0.000000 -2.171947 -36.277316 39.827394 -12.099982 -0.000001 -29.345670 20.682983 -6.944588 -1.116576 -0.000000 
